<svg id="visual" viewBox="0 0 900 600" width="900" height="600" xmlns="http://www.w3.org/2000/svg" xmlns:xlink="http://www.w3.org/1999/xlink" version="1.1"><rect x="0" y="0" width="900" height="600" fill="#002233"></rect><path d="M0 272L13.7 284.7C27.3 297.3 54.7 322.7 82 360.2C109.3 397.7 136.7 447.3 163.8 484.2C191 521 218 545 245.2 514.8C272.3 484.7 299.7 400.3 327 385.7C354.3 371 381.7 426 409 449.5C436.3 473 463.7 465 491 471.8C518.3 478.7 545.7 500.3 573 476.8C600.3 453.3 627.7 384.7 654.8 385.2C682 385.7 709 455.3 736.2 438.3C763.3 421.3 790.7 317.7 818 249.2C845.3 180.7 872.7 147.3 886.3 130.7L900 114L900 601L886.3 601C872.7 601 845.3 601 818 601C790.7 601 763.3 601 736.2 601C709 601 682 601 654.8 601C627.7 601 600.3 601 573 601C545.7 601 518.3 601 491 601C463.7 601 436.3 601 409 601C381.7 601 354.3 601 327 601C299.7 601 272.3 601 245.2 601C218 601 191 601 163.8 601C136.7 601 109.3 601 82 601C54.7 601 27.3 601 13.7 601L0 601Z" fill="#F5730A" stroke-linecap="round" stroke-linejoin="miter"></path></svg>