<svg id="visual" viewBox="0 0 900 600" width="900" height="600" xmlns="http://www.w3.org/2000/svg" xmlns:xlink="http://www.w3.org/1999/xlink" version="1.1"><path d="M0 381L225 357L450 428L675 365L900 429L900 601L675 601L450 601L225 601L0 601Z" fill="#ffa900"></path><path d="M0 514L225 411L450 407L675 456L900 480L900 601L675 601L450 601L225 601L0 601Z" fill="#fd9700"></path><path d="M0 456L225 509L450 479L675 518L900 513L900 601L675 601L450 601L225 601L0 601Z" fill="#f98502"></path><path d="M0 568L225 516L450 554L675 510L900 506L900 601L675 601L450 601L225 601L0 601Z" fill="#f5730a"></path></svg>