<svg id="visual" viewBox="0 0 900 600" width="900" height="600" xmlns="http://www.w3.org/2000/svg" xmlns:xlink="http://www.w3.org/1999/xlink" version="1.1"><rect x="0" y="0" width="900" height="600" fill="#001220"></rect><path d="M0 382L21.5 379.5C43 377 86 372 128.8 375C171.7 378 214.3 389 257.2 395.5C300 402 343 404 385.8 397.5C428.7 391 471.3 376 514.2 368.5C557 361 600 361 642.8 363C685.7 365 728.3 369 771.2 380.3C814 391.7 857 410.3 878.5 419.7L900 429L900 601L878.5 601C857 601 814 601 771.2 601C728.3 601 685.7 601 642.8 601C600 601 557 601 514.2 601C471.3 601 428.7 601 385.8 601C343 601 300 601 257.2 601C214.3 601 171.7 601 128.8 601C86 601 43 601 21.5 601L0 601Z" fill="#ffcc00"></path><path d="M0 451L21.5 442.5C43 434 86 417 128.8 413.2C171.7 409.3 214.3 418.7 257.2 421.5C300 424.3 343 420.7 385.8 425C428.7 429.3 471.3 441.7 514.2 438.2C557 434.7 600 415.3 642.8 419.2C685.7 423 728.3 450 771.2 453C814 456 857 435 878.5 424.5L900 414L900 601L878.5 601C857 601 814 601 771.2 601C728.3 601 685.7 601 642.8 601C600 601 557 601 514.2 601C471.3 601 428.7 601 385.8 601C343 601 300 601 257.2 601C214.3 601 171.7 601 128.8 601C86 601 43 601 21.5 601L0 601Z" fill="#e0b400"></path><path d="M0 480L21.5 480.5C43 481 86 482 128.8 483C171.7 484 214.3 485 257.2 485.7C300 486.3 343 486.7 385.8 480.7C428.7 474.7 471.3 462.3 514.2 460.7C557 459 600 468 642.8 468.8C685.7 469.7 728.3 462.3 771.2 464C814 465.7 857 476.3 878.5 481.7L900 487L900 601L878.5 601C857 601 814 601 771.2 601C728.3 601 685.7 601 642.8 601C600 601 557 601 514.2 601C471.3 601 428.7 601 385.8 601C343 601 300 601 257.2 601C214.3 601 171.7 601 128.8 601C86 601 43 601 21.5 601L0 601Z" fill="#c29c00"></path><path d="M0 512L21.5 507.5C43 503 86 494 128.8 493.7C171.7 493.3 214.3 501.7 257.2 509C300 516.3 343 522.7 385.8 525.2C428.7 527.7 471.3 526.3 514.2 523.5C557 520.7 600 516.3 642.8 513.7C685.7 511 728.3 510 771.2 514.7C814 519.3 857 529.7 878.5 534.8L900 540L900 601L878.5 601C857 601 814 601 771.2 601C728.3 601 685.7 601 642.8 601C600 601 557 601 514.2 601C471.3 601 428.7 601 385.8 601C343 601 300 601 257.2 601C214.3 601 171.7 601 128.8 601C86 601 43 601 21.5 601L0 601Z" fill="#a58500"></path><path d="M0 545L21.5 546.8C43 548.7 86 552.3 128.8 550.8C171.7 549.3 214.3 542.7 257.2 542.3C300 542 343 548 385.8 554.3C428.7 560.7 471.3 567.3 514.2 564.5C557 561.7 600 549.3 642.8 542.7C685.7 536 728.3 535 771.2 539.5C814 544 857 554 878.5 559L900 564L900 601L878.5 601C857 601 814 601 771.2 601C728.3 601 685.7 601 642.8 601C600 601 557 601 514.2 601C471.3 601 428.7 601 385.8 601C343 601 300 601 257.2 601C214.3 601 171.7 601 128.8 601C86 601 43 601 21.5 601L0 601Z" fill="#896e00"></path></svg>