<svg id="visual" viewBox="0 0 900 600" width="900" height="600" xmlns="http://www.w3.org/2000/svg" xmlns:xlink="http://www.w3.org/1999/xlink" version="1.1"><rect x="0" y="0" width="900" height="600" fill="#001220"></rect><defs><linearGradient id="grad1_0" x1="33.3%" y1="0%" x2="100%" y2="100%"><stop offset="20%" stop-color="#001220" stop-opacity="1"></stop><stop offset="80%" stop-color="#001220" stop-opacity="1"></stop></linearGradient></defs><defs><linearGradient id="grad2_0" x1="0%" y1="0%" x2="66.7%" y2="100%"><stop offset="20%" stop-color="#001220" stop-opacity="1"></stop><stop offset="80%" stop-color="#001220" stop-opacity="1"></stop></linearGradient></defs><g transform="translate(900, 0)"><path d="M0 486.7C-49.2 445.6 -98.4 404.5 -160.3 387.1C-222.3 369.8 -297.2 376.2 -344.2 344.2C-391.2 312.2 -410.5 241.7 -429.6 177.9C-448.7 114.2 -467.7 57.1 -486.7 0L0 0Z" fill="#ffcc00"></path></g><g transform="translate(0, 600)"><path d="M0 -486.7C66 -482.5 132 -478.2 186.3 -449.7C240.6 -421.2 283.2 -368.6 318.9 -318.9C354.6 -269.2 383.4 -222.6 410.2 -169.9C437 -117.3 461.9 -58.6 486.7 0L0 0Z" fill="#ffcc00"></path></g></svg>